<svg width="947" height="272" viewBox="0 0 947 272" fill="none" xmlns="http://www.w3.org/2000/svg">
<path d="M49.3697 106.526C72.7698 106.526 91.7394 87.2626 91.7394 63.5003C91.7394 39.7379 72.7698 20.4747 49.3697 20.4747C25.9696 20.4747 7 39.7379 7 63.5003C7 87.2626 25.9696 106.526 49.3697 106.526Z" fill="#49687B" stroke="#011418" stroke-width="13.1771"/>
<path d="M220.813 106.051C197.413 106.051 178.443 86.7879 178.443 63.0255C178.443 39.2632 197.413 20 220.813 20C244.213 20 263.182 39.2632 263.182 63.0255C263.182 86.7879 244.213 106.051 220.813 106.051Z" fill="#49687B" stroke="#011418" stroke-width="13.1771"/>
<path d="M135.391 250.159C197.794 250.159 248.381 200.324 248.381 138.849C248.381 77.3739 197.794 27.5386 135.391 27.5386C72.9881 27.5386 22.4006 77.3739 22.4006 138.849C22.4006 200.324 72.9881 250.159 135.391 250.159Z" fill="#F8F8F8"/>
<path d="M30.9055 165.009C108.023 259.802 175.86 243.738 246.653 161.445L250.217 159.544L225.506 204.689L180.361 242.231L118.702 249.954L62.1509 220.134L34.826 180.928L30.9055 165.009Z" fill="#C6E4ED"/>
<path d="M134.528 251.258C196.931 251.258 247.518 201.423 247.518 139.948C247.518 78.473 196.931 28.6377 134.528 28.6377C72.1251 28.6377 21.5376 78.473 21.5376 139.948C21.5376 201.423 72.1251 251.258 134.528 251.258Z" stroke="#011418" stroke-width="13.8627"/>
<path d="M213.625 146.254C225.792 134.087 224.682 113.249 211.145 99.7123C197.608 86.1755 176.771 85.0654 164.603 97.2329C152.436 109.4 153.546 130.238 167.083 143.775C180.62 157.312 201.457 158.422 213.625 146.254Z" fill="#011418" stroke="#011418" stroke-width="4.06231"/>
<path d="M58.1837 147.829C46.0161 135.661 47.1262 114.824 60.6631 101.287C74.2 87.7502 95.0375 86.6401 107.205 98.8076C119.373 110.975 118.262 131.813 104.726 145.35C91.1887 158.886 70.3512 159.997 58.1837 147.829Z" fill="#011418" stroke="#011418" stroke-width="4.06231"/>
<path d="M80.0846 121.437C76.3015 117.684 76.6466 111.257 80.8555 107.081C85.0644 102.906 91.5432 102.563 95.3263 106.316C99.1094 110.069 98.7642 116.497 94.5554 120.672C90.3465 124.847 83.8677 125.19 80.0846 121.437Z" fill="#F8F8F8"/>
<path d="M190.154 122.652C193.937 118.899 193.592 112.472 189.383 108.296C185.174 104.121 178.695 103.778 174.912 107.531C171.129 111.284 171.474 117.712 175.683 121.887C179.892 126.063 186.371 126.405 190.154 122.652Z" fill="#F8F8F8"/>
<path d="M148.946 143.984C148.908 147.772 147.416 151.388 144.799 154.04C142.182 156.691 138.653 158.16 134.988 158.123C131.324 158.086 127.823 156.547 125.256 153.844C122.689 151.141 121.266 147.495 121.299 143.708" fill="#011418"/>
<path d="M148.946 143.984C148.908 147.772 147.416 151.388 144.799 154.04C142.182 156.691 138.653 158.16 134.988 158.123C131.324 158.086 127.823 156.547 125.256 153.844C122.689 151.141 121.266 147.495 121.299 143.708" stroke="#011418" stroke-width="9.10753"/>
<path d="M146.833 176.7C143.43 178.439 139.219 179.437 135.017 179.499C130.814 179.562 126.918 178.686 124.083 177.04L136.729 169.296L146.833 176.7Z" fill="#011418"/>
<path d="M135.806 169.816V160.196V170.798" fill="#011418"/>
<path d="M135.806 169.816V160.196V170.798" stroke="#011418" stroke-width="3.05745"/>
<path d="M340.1 70.18H395.54C410.18 70.18 421.88 74.02 430.64 81.7C439.4 89.38 443.78 100.12 443.78 113.92C443.78 128.08 439.4 139.06 430.64 146.86C422 154.54 410.3 158.38 395.54 158.38H371.96V196H340.1V70.18ZM390.5 131.56C396.86 131.56 401.84 130.24 405.44 127.6C409.16 124.96 411.02 120.4 411.02 113.92C411.02 107.44 409.22 103 405.62 100.6C402.02 98.2 396.98 97 390.5 97H371.96V131.56H390.5ZM477.27 198.7C466.47 198.7 457.71 196.12 450.99 190.96C444.39 185.68 441.09 178.36 441.09 169C441.09 159.28 444.27 151.84 450.63 146.68C457.11 141.4 466.35 138.76 478.35 138.76C483.03 138.76 487.71 139.3 492.39 140.38C497.07 141.34 501.09 142.66 504.45 144.34V142.54C504.45 133.3 496.89 128.68 481.77 128.68C471.21 128.68 461.55 130.72 452.79 134.8V113.02C456.63 111.22 461.67 109.78 467.91 108.7C474.15 107.5 480.63 106.9 487.35 106.9C503.43 106.9 515.55 110.14 523.71 116.62C531.99 122.98 536.13 131.92 536.13 143.44V196H506.43V188.62C503.19 191.74 499.11 194.2 494.19 196C489.27 197.8 483.63 198.7 477.27 198.7ZM486.63 179.26C490.35 179.26 493.83 178.54 497.07 177.1C500.31 175.54 502.77 173.56 504.45 171.16V163.6C499.29 160.12 493.41 158.38 486.81 158.38C482.61 158.38 479.37 159.28 477.09 161.08C474.81 162.88 473.67 165.52 473.67 169C473.67 172.24 474.75 174.76 476.91 176.56C479.19 178.36 482.43 179.26 486.63 179.26ZM551.389 109.6H581.989V119.14C585.709 115.06 590.209 112 595.489 109.96C600.769 107.92 606.289 106.9 612.049 106.9C624.169 106.9 633.109 110.08 638.869 116.44C644.749 122.68 647.689 131.2 647.689 142V196H616.009V146.14C616.009 136.42 611.569 131.56 602.689 131.56C598.609 131.56 594.889 132.52 591.529 134.44C588.169 136.24 585.349 139.06 583.069 142.9V196H551.389V109.6ZM705.31 198.7C696.31 198.7 688.33 196.84 681.37 193.12C674.41 189.28 669.01 183.94 665.17 177.1C661.33 170.14 659.41 162.1 659.41 152.98C659.41 143.98 661.33 136 665.17 129.04C669.01 121.96 674.35 116.5 681.19 112.66C688.15 108.82 696.19 106.9 705.31 106.9C711.31 106.9 716.83 107.74 721.87 109.42C726.91 111.1 731.23 113.5 734.83 116.62V62.98H766.51V196H735.91V187.36C727.87 194.92 717.67 198.7 705.31 198.7ZM713.59 174.22C718.39 174.22 722.71 173.02 726.55 170.62C730.39 168.1 733.15 164.74 734.83 160.54V145.24C733.15 141.04 730.39 137.74 726.55 135.34C722.71 132.82 718.39 131.56 713.59 131.56C707.11 131.56 701.89 133.48 697.93 137.32C693.97 141.16 691.99 146.38 691.99 152.98C691.99 159.58 693.97 164.8 697.93 168.64C701.89 172.36 707.11 174.22 713.59 174.22ZM797.837 198.7C793.877 198.7 789.677 198.28 785.237 197.44C780.917 196.72 777.677 195.76 775.517 194.56V166.48C777.317 167.32 779.597 167.98 782.357 168.46C785.237 168.94 788.117 169.18 790.997 169.18C796.277 169.18 799.997 168.1 802.157 165.94C804.317 163.66 805.397 159.94 805.397 154.78V70.18H837.257V158.38C837.257 170.74 833.897 180.58 827.177 187.9C820.457 195.1 810.677 198.7 797.837 198.7ZM891.742 198.7C883.822 198.7 875.962 197.92 868.162 196.36C860.362 194.92 853.942 192.88 848.902 190.24V161.62C855.382 164.98 862.102 167.5 869.062 169.18C876.142 170.86 882.862 171.7 889.222 171.7C895.102 171.7 899.542 170.8 902.542 169C905.542 167.2 907.042 164.62 907.042 161.26C907.042 158.74 906.202 156.58 904.522 154.78C902.962 152.86 900.622 151.12 897.502 149.56C894.382 148 889.522 145.84 882.922 143.08C871.282 138.16 862.822 132.7 857.542 126.7C852.262 120.7 849.622 113.32 849.622 104.56C849.622 97.36 851.602 90.94 855.562 85.3C859.642 79.66 865.282 75.28 872.482 72.16C879.682 69.04 887.962 67.48 897.322 67.48C905.002 67.48 911.842 68.08 917.842 69.28C923.842 70.48 929.602 72.4 935.122 75.04V102.94C924.562 97.42 913.942 94.66 903.262 94.66C897.502 94.66 892.882 95.62 889.402 97.54C886.042 99.34 884.362 101.98 884.362 105.46C884.362 108.94 886.102 111.76 889.582 113.92C893.062 116.08 899.482 119.02 908.842 122.74C917.362 126.22 923.962 129.64 928.642 133C933.442 136.36 936.922 140.26 939.082 144.7C941.242 149.14 942.322 154.78 942.322 161.62C942.322 173.26 938.062 182.38 929.542 188.98C921.142 195.46 908.542 198.7 891.742 198.7Z" fill="white"/>
</svg>
