<svg width="47" height="42" viewBox="0 0 47 42" fill="none" xmlns="http://www.w3.org/2000/svg">
<path d="M8.32855 15.9661C12.376 15.9661 15.6571 12.6342 15.6571 8.52408C15.6571 4.41398 12.376 1.08209 8.32855 1.08209C4.28111 1.08209 1 4.41398 1 8.52408C1 12.6342 4.28111 15.9661 8.32855 15.9661Z" fill="#49687B" stroke="#011418" stroke-width="2"/>
<path d="M37.9825 15.884C33.935 15.884 30.6539 12.5521 30.6539 8.44199C30.6539 4.33189 33.935 1 37.9825 1C42.0299 1 45.311 4.33189 45.311 8.44199C45.311 12.5521 42.0299 15.884 37.9825 15.884Z" fill="#49687B" stroke="#011418" stroke-width="2"/>
<path d="M23.484 40.8897C34.2776 40.8897 43.0276 32.2698 43.0276 21.6367C43.0276 11.0036 34.2776 2.38373 23.484 2.38373C12.6904 2.38373 3.94043 11.0036 3.94043 21.6367C3.94043 32.2698 12.6904 40.8897 23.484 40.8897Z" fill="#F8F8F8"/>
<path d="M5.13489 26.0817C18.4736 42.4777 30.2073 39.6992 42.4521 25.4652L43.0686 25.1364L38.7944 32.9451L30.9857 39.4386L20.3207 40.7743L10.5393 35.6165L5.81301 28.8352L5.13489 26.0817Z" fill="#C6E4ED"/>
<path d="M23.0581 41C33.8517 41 42.6017 32.3801 42.6017 21.747C42.6017 11.1139 33.8517 2.49402 23.0581 2.49402C12.2645 2.49402 3.51453 11.1139 3.51453 21.747C3.51453 32.3801 12.2645 41 23.0581 41Z" stroke="#011418" stroke-width="2"/>
<path d="M36.7392 22.8378C38.8438 20.7333 38.6518 17.129 36.3104 14.7876C33.9689 12.4462 30.3647 12.2542 28.2601 14.3588C26.1556 16.4633 26.3476 20.0675 28.689 22.409C31.0304 24.7504 34.6346 24.9424 36.7392 22.8378Z" fill="#011418" stroke="#011418" stroke-width="2"/>
<path d="M9.85307 23.1102C7.7485 21.0056 7.94051 17.4014 10.2819 15.06C12.6234 12.7185 16.2276 12.5265 18.3321 14.6311C20.4367 16.7357 20.2447 20.3399 17.9033 22.6813C15.5619 25.0227 11.9577 25.2147 9.85307 23.1102Z" fill="#011418" stroke="#011418" stroke-width="2"/>
<path d="M13.6413 18.5452C12.9869 17.8961 13.0466 16.7844 13.7746 16.0622C14.5026 15.34 15.6232 15.2808 16.2776 15.9299C16.9319 16.579 16.8722 17.6907 16.1442 18.413C15.4163 19.1352 14.2956 19.1944 13.6413 18.5452Z" fill="#F8F8F8"/>
<path d="M32.6796 18.7553C33.334 18.1062 33.2743 16.9945 32.5463 16.2723C31.8183 15.5501 30.6977 15.4908 30.0433 16.14C29.389 16.7891 29.4487 17.9008 30.1767 18.623C30.9047 19.3452 32.0253 19.4045 32.6796 18.7553Z" fill="#F8F8F8"/>
<path d="M25.5519 22.4452C25.5453 23.1003 25.2874 23.7259 24.8347 24.1845C24.382 24.6431 23.7716 24.8971 23.1378 24.8908C22.5039 24.8844 21.8984 24.6182 21.4544 24.1507C21.0104 23.6831 20.7642 23.0524 20.7699 22.3973" fill="#011418"/>
<path d="M25.5519 22.4452C25.5453 23.1003 25.2874 23.7259 24.8347 24.1845C24.382 24.6431 23.7716 24.8971 23.1378 24.8908C22.5039 24.8844 21.8984 24.6182 21.4544 24.1507C21.0104 23.6831 20.7642 23.0524 20.7699 22.3973" stroke="#011418" stroke-width="2"/>
<path d="M25.1976 28.5092C24.6089 28.81 23.8807 28.9825 23.1538 28.9934C22.4269 29.0043 21.753 28.8526 21.2625 28.5679L23.4499 27.2285L25.1976 28.5092Z" fill="#011418"/>
<path d="M23 27.7222L23 25L23 28" fill="#011418"/>
<path d="M23 27.7222L23 25L23 28" stroke="#011418"/>
</svg>
